<svg xmlns="http://www.w3.org/2000/svg" width="1920" height="1080" viewBox="0 0 1920 1080">
  <defs>
    <radialGradient id="rad" cx="50%" cy="50%" r="65%">
      <stop offset="0%" stop-color="#0a192f"/>
      <stop offset="100%" stop-color="#0f1f3a"/>
    </radialGradient>
  </defs>
  <rect width="100%" height="100%" fill="url(#rad)"/>
  <g stroke="rgba(100,255,218,0.12)" stroke-width="1.5" fill="none">
    <polyline points="200,500 350,420 500,480 650,430 800,470 950,420 1100,480 1250,430 1400,470 1550,430 1700,480"/>
    <polyline points="250,650 400,580 550,640 700,590 850,630 1000,580 1150,640 1300,590 1450,630 1600,590"/>
  </g>
  <g fill="rgba(97,218,251,0.22)">
    <circle cx="350" cy="420" r="3"/>
    <circle cx="650" cy="430" r="3"/>
    <circle cx="950" cy="420" r="3"/>
    <circle cx="1250" cy="430" r="3"/>
    <circle cx="1550" cy="430" r="3"/>
  </g>
</svg>